<svg xmlns="http://www.w3.org/2000/svg" xmlns:xlink="http://www.w3.org/1999/xlink" id="Camada_1" x="0px" y="0px" viewBox="0 0 400 114.63" style="enable-background:new 0 0 400 114.63;" xml:space="preserve"><style type="text/css">	.st0{fill:#FFFFFF;}</style><g>	<path id="Caminho_42_00000136399512185053701760000014597823745439899799_" class="st0" d="M0.2,0.08v114.63h18.09V4.16  L66.1,114.72h37.93V0.24H84.72v110.6L36.82,0.08H0.2z"></path>	<path id="Caminho_43_00000041288275694100797410000009951498434868601023_" class="st0" d="M120.28,0.08l49.57,114.63h23.07  L143.36,0.08H120.28z"></path>	<path id="Caminho_44_00000093170617949371188880000016178613718901830050_" class="st0" d="M176.97,0.08l49.57,114.63h23.07  L200.05,0.08H176.97z"></path>	<path id="Caminho_45_00000003065661620953531620000001865706203337008299_" class="st0" d="M231.72,0.08l6.7,17.43h26.41  l-11.7,33.86h19.43l17.72-51.29H231.72z"></path>	<g id="Grupo_13_00000015356121319244257780000008430066692262097303_">		<path id="Caminho_46_00000086653664756575381420000013975645517274714258_" class="st0" d="M387.26,54.21   c5.88-5.22,8.86-12.62,8.86-22.05c0-18.7-13.13-31.76-31.92-31.76h-57.99V114.4h58.93c22.28,0,35.06-12.32,35.06-33.8   C400.2,68.46,395.64,59.22,387.26,54.21 M377.76,32.15c0,10.07-5.66,14.97-17.31,14.97h-34.92V17.51h34.93   C371.62,17.51,377.76,22.71,377.76,32.15 M363.11,63.92c12.61,0,18.72,5.46,18.72,16.69c0,13.79-10.18,16.69-18.72,16.69h-37.59   V63.92H363.11z"></path>	</g></g></svg>