<svg xmlns="http://www.w3.org/2000/svg" xmlns:xlink="http://www.w3.org/1999/xlink" id="Camada_1" x="0px" y="0px" viewBox="0 0 300 300" style="enable-background:new 0 0 300 300;" xml:space="preserve"><style type="text/css">	.st0{fill:#2950FF;}	.st1{fill:#FFFFFF;}</style><g>	<path id="Uni&#xE3;o_6" class="st0" d="M0,0h300v300H148.23V152.36H0V0z"></path>	<path id="Caminho_42" class="st1" d="M80.59,52.77v43.37h6.84V54.32l18.09,41.82h14.35V52.83h-7.3v41.84l-18.12-41.9H80.59z"></path>	<path id="Caminho_43" class="st1" d="M126.02,52.77l18.75,43.37h8.73l-18.75-43.37H126.02z"></path>	<path id="Caminho_44" class="st1" d="M147.46,52.77l18.75,43.37h8.73l-18.75-43.37H147.46z"></path>	<path id="Caminho_45" class="st1" d="M168.18,52.77l2.54,6.59h9.99l-4.43,12.81h7.35l6.7-19.4H168.18z"></path>	<g id="Grupo_13">		<path id="Caminho_46" class="st1" d="M227.02,73.25c2.23-1.98,3.35-4.78,3.35-8.34c0-7.07-4.97-12.02-12.08-12.02h-21.94v43.13   h22.29c8.43,0,13.26-4.66,13.26-12.79C231.91,78.64,230.19,75.15,227.02,73.25 M223.42,64.91c0,3.81-2.14,5.66-6.55,5.66h-13.21   v-11.2h13.21C221.1,59.37,223.42,61.33,223.42,64.91 M217.88,76.92c4.77,0,7.08,2.06,7.08,6.31c0,5.22-3.85,6.31-7.08,6.31h-14.22   V76.92H217.88z"></path>	</g></g></svg>